<svg width="97" height="38" viewBox="0 0 97 38" fill="none" xmlns="http://www.w3.org/2000/svg">
<path d="M64.9127 34.3012C63.3194 35.4633 61.3877 36.0692 59.4156 36.0253C56.3488 36.0253 53.3608 35.2369 51.7512 34.1961C51.9721 33.518 52.3456 32.2144 52.4981 31.468L56.091 14.616C56.389 13.3389 56.5651 12.0365 56.617 10.7262C56.6263 10.2368 56.5768 9.74794 56.4698 9.27021L61.6881 7.66174C61.8027 8.18988 61.8521 8.73005 61.8354 9.27021C61.8172 10.4373 61.6922 11.6003 61.4619 12.7447L60.8254 15.7724C60.65 16.6467 60.4127 17.5074 60.1152 18.348C60.768 17.5918 61.5751 16.9838 62.4824 16.565C63.3897 16.1461 64.3762 15.926 65.3756 15.9196C68.9317 15.9196 70.4993 18.4269 70.4993 22.5742C70.4993 27.2787 68.5161 31.7676 64.9285 34.3012H64.9127ZM63.5292 19.9933C61.9984 19.9933 60.373 21.2653 59.3788 22.9842L57.5113 31.4996C58.2447 32.0879 59.1712 32.3822 60.11 32.3248C61.1936 32.3248 62.5403 31.3156 63.2662 30.0856C64.3183 28.2143 65.06 23.9934 65.06 22.4953C65.06 20.8553 64.5761 19.9933 63.5661 19.9933H63.5292ZM80.2468 14.2428C79.4288 14.2372 78.6464 13.9075 78.0714 13.3261C77.4964 12.7446 77.1758 11.9589 77.18 11.1415C77.1834 10.731 77.2678 10.3252 77.4284 9.94739C77.5889 9.56954 77.8225 9.22704 78.1156 8.93947C78.4088 8.65191 78.7558 8.42493 79.1369 8.27153C79.5179 8.11812 79.9255 8.0413 80.3363 8.04546C80.739 8.04889 81.137 8.1318 81.5076 8.28945C81.8781 8.4471 82.2138 8.67636 82.4954 8.96407C82.7769 9.25178 82.9988 9.59225 83.1483 9.96593C83.2977 10.3396 83.3718 10.7391 83.3663 11.1415C83.367 11.5489 83.2871 11.9525 83.1314 12.3291C82.9757 12.7057 82.7471 13.0478 82.4588 13.336C82.1704 13.6241 81.828 13.8525 81.4511 14.0081C81.0743 14.1637 80.6704 14.2435 80.2626 14.2428H80.2468ZM77.5535 35.5417H72.5456L76.5435 16.7501L81.704 15.9616L77.5535 35.5417ZM96.4068 16.4084L94.613 19.8461H91.2832L89.2632 29.4496C89.139 29.9998 89.0772 30.5623 89.0791 31.1264C89.0791 32.1776 89.6367 32.514 90.7571 32.514C91.3974 32.4868 92.0294 32.3591 92.6298 32.1356V35.1633C91.2692 35.6924 89.8237 35.9702 88.3637 35.9833C85.4862 35.9833 83.8397 34.564 83.8397 32.698C83.8447 31.8696 83.9328 31.0437 84.1027 30.2328L86.3068 19.8461H84.4026L85.1495 16.4084H87.0591C87.3176 14.8719 87.7048 13.3597 88.2164 11.8879L93.4768 10.6158C92.9192 12.3715 92.3563 14.4635 91.946 16.3979L96.4068 16.4084Z" fill="#155DA4"/>
<path d="M25.8286 2.63327C16.8227 6.83314 12.5145 11.853 10.0841 16.3472C10.0315 16.5154 10.1367 16.7362 10.2525 16.6206C12.8459 15.1908 15.2762 14.4707 16.9332 14.4707C20.8575 14.4497 24.3557 17.9242 24.3925 23.1806C24.3925 28.642 21.7623 33.1152 16.7701 35.6015C14.9265 36.5019 12.9091 36.9916 10.8574 37.0365C3.72956 37.0312 0.683777 31.9535 0.683777 26.3765C0.683777 14.6704 12.0726 4.67801 25.2236 0.924934C25.4972 1.03006 26.0495 2.4125 25.8286 2.63327ZM8.47971 20.0267C7.71517 22.1333 7.32183 24.3564 7.31716 26.5972C7.31716 32.1165 9.36347 34.7447 12.404 34.7447C15.718 34.7447 18.0432 30.1295 18.0432 25.2831C17.9905 20.258 16.0021 17.8821 12.688 17.8821C11.5799 17.9165 10.4967 18.2195 9.5318 18.7652C9.06924 19.0829 8.70481 19.5235 8.47971 20.0372V20.0267ZM51.0891 2.63327C42.078 6.82788 37.7645 11.853 35.3341 16.3472C35.2815 16.5102 35.3867 16.731 35.5025 16.6206C38.0959 15.1856 40.5262 14.4654 42.1832 14.4654C46.1075 14.4444 49.6057 17.9242 49.6425 23.1806C49.6425 28.6472 47.0123 33.1204 42.0201 35.6067C40.176 36.5054 38.1587 36.9932 36.1074 37.0365C28.9796 37.026 25.9338 31.9483 25.9338 26.3765C25.9338 14.6652 37.3226 4.67275 50.4736 0.919678C50.7524 1.03006 51.3048 2.4125 51.0838 2.63327H51.0891ZM33.735 20.0267C32.9675 22.1325 32.5741 24.3561 32.5724 26.5972C32.5724 32.1165 34.6187 34.7447 37.654 34.7447C40.968 34.7447 43.2932 30.1295 43.2932 25.2831C43.2353 20.2633 41.2468 17.8874 37.9328 17.8874C36.8246 17.9217 35.7414 18.2248 34.7765 18.7704C34.3122 19.0862 33.9473 19.5274 33.7245 20.0425L33.735 20.0267Z" fill="#155DA4"/>
</svg>
