<svg width="14" height="14" viewBox="0 0 14 14" fill="none" xmlns="http://www.w3.org/2000/svg">
<path d="M0.491456 8.44506C0.559603 8.37677 0.645057 8.32833 0.738649 8.30493C0.832243 8.28153 0.930442 8.28406 1.02271 8.31224C2.03569 8.61848 3.11277 8.64416 4.13919 8.38654C5.16562 8.12892 6.10291 7.59765 6.85122 6.84935C7.59952 6.10105 8.13078 5.16375 8.38841 4.13733C8.64603 3.1109 8.62035 2.03382 8.31411 1.02084C8.28569 0.928535 8.28297 0.83023 8.30624 0.736496C8.32951 0.642761 8.37789 0.557144 8.44619 0.488852C8.51448 0.420559 8.6001 0.372176 8.69383 0.348904C8.78757 0.325633 8.88587 0.328355 8.97817 0.356776C10.3787 0.78579 11.6082 1.64558 12.4917 2.81381C13.2644 3.83969 13.7357 5.06071 13.8527 6.3397C13.9697 7.61868 13.7278 8.90495 13.1541 10.054C12.5803 11.2031 11.6976 12.1694 10.6049 12.8444C9.51226 13.5194 8.25305 13.8763 6.96872 13.8751C5.47037 13.8797 4.01188 13.3926 2.817 12.4885C1.64878 11.605 0.788985 10.3755 0.359971 8.97498C0.331879 8.88302 0.329271 8.78516 0.352427 8.69183C0.375584 8.59851 0.423635 8.51322 0.491456 8.44506ZM3.45583 11.6399C4.58106 12.4874 5.97456 12.8999 7.37981 12.8015C8.78506 12.7031 10.1075 12.1004 11.1036 11.1044C12.0998 10.1083 12.7026 8.78594 12.8011 7.38069C12.8996 5.97545 12.4872 4.58191 11.6397 3.45662C11.0876 2.72752 10.3739 2.1365 9.55458 1.73006C9.60125 2.05759 9.62477 2.38801 9.62497 2.71885C9.62304 4.5499 8.8948 6.30541 7.60004 7.60017C6.30529 8.89492 4.54978 9.62316 2.71872 9.6251C2.38722 9.62499 2.05613 9.60147 1.72794 9.55471C2.13476 10.3741 2.72625 11.0879 3.45583 11.6399Z" fill="#155DA4"/>
</svg>
